<svg width="160" height="163" viewBox="0 0 160 163" fill="none" xmlns="http://www.w3.org/2000/svg">
<path d="M159.059 68.9389L158.235 65.4508H82.3529V97.5492H127.686C122.98 119.889 101.137 131.646 83.2941 131.646C70.3137 131.646 56.6275 126.199 47.5686 117.42C38.2745 108.405 32.3529 95.1193 32.3529 81.4412C32.3529 67.9199 38.4314 54.3987 47.2941 45.502C56.1176 36.6446 69.4902 31.628 82.7843 31.628C98 31.628 108.902 39.7016 112.98 43.3857L135.804 20.6934C129.098 14.8146 110.706 0 82.0392 0C59.9216 0 38.7059 8.4655 23.2157 23.9072C7.92157 39.1137 0 61.1005 0 81.4804C0 101.86 7.4902 122.789 22.3137 138.113C38.1569 154.456 60.5882 163 83.6863 163C104.706 163 124.627 154.77 138.824 139.837C152.784 125.14 160 104.8 160 83.4792C160 74.5042 159.098 69.1741 159.059 68.9389Z" fill="white"/>
</svg>
