<svg width="34" height="34" viewBox="0 0 34 34" fill="none" xmlns="http://www.w3.org/2000/svg">
<path d="M17 34C26.3888 34 34 26.3888 34 17C34 7.61116 26.3888 0 17 0C7.61116 0 0 7.61116 0 17C0 26.3888 7.61116 34 17 34Z" fill="#3A3A3A"/>
<path d="M13.8834 24.7916C13.3326 24.7916 13.4262 24.5836 13.2363 24.0592L11.6167 18.7291L24.0834 11.3333" fill="#C8DAEA"/>
<path d="M13.8833 24.7918C14.3083 24.7918 14.4961 24.5974 14.7333 24.3668L17 22.1627L14.1726 20.4578" fill="#A9C9DD"/>
<path d="M14.1724 20.4576L21.0233 25.5193C21.8051 25.9506 22.3694 25.7273 22.5641 24.7934L25.3528 11.652C25.6383 10.5073 24.9165 9.98812 24.1686 10.3277L7.79333 16.6419C6.67556 17.0902 6.68208 17.7138 7.58958 17.9917L11.7918 19.3033L21.5205 13.1656C21.9798 12.8871 22.4013 13.0368 22.0553 13.3439" fill="url(#paint0_linear)"/>
<defs>
<linearGradient id="paint0_linear" x1="19.1257" y1="16.9994" x2="21.7861" y2="23.0532" gradientUnits="userSpaceOnUse">
<stop stop-color="#EFF7FC"/>
<stop offset="1" stop-color="white"/>
</linearGradient>
</defs>
</svg>
